<svg xmlns="http://www.w3.org/2000/svg" width="54" height="52" viewBox="0 0 54 52">
  <g id="Gruppe_55" data-name="Gruppe 55" transform="translate(-321 -44)">
    <ellipse id="Ellipse_1" data-name="Ellipse 1" cx="27" cy="26" rx="27" ry="26" transform="translate(321 44)" fill="#f96400"/>
    <path id="Icon_metro-medal" data-name="Icon metro-medal" d="M17.995,16.967a7.608,7.608,0,0,1,2.32.395L10.941,3.3a.488.488,0,0,0-.406-.217H5.051a.227.227,0,0,0-.188.353l9.611,14.417a7.62,7.62,0,0,1,3.521-.888ZM30.939,3.085H25.454a.488.488,0,0,0-.406.217l-5.9,8.844,3.085,4.627L31.127,3.438a.227.227,0,0,0-.188-.353ZM17.995,18.509a6.17,6.17,0,1,0,6.17,6.17A6.17,6.17,0,0,0,17.995,18.509Zm3.258,6.35a.2.2,0,0,1-.034.321.265.265,0,0,0-.076.353.2.2,0,0,1-.1.307.264.264,0,0,0-.147.33.2.2,0,0,1-.16.279.264.264,0,0,0-.211.292.2.2,0,0,1-.216.239.265.265,0,0,0-.268.241.206.206,0,0,1-.261.19.265.265,0,0,0-.313.18.2.2,0,0,1-.295.131.263.263,0,0,0-.342.111.205.205,0,0,1-.316.066.262.262,0,0,0-.358.037.2.2,0,0,1-.322,0,.262.262,0,0,0-.358-.037.205.205,0,0,1-.316-.066.264.264,0,0,0-.342-.111.2.2,0,0,1-.295-.131.265.265,0,0,0-.313-.18.2.2,0,0,1-.261-.19.263.263,0,0,0-.267-.242.2.2,0,0,1-.216-.239.264.264,0,0,0-.211-.292.2.2,0,0,1-.16-.279.264.264,0,0,0-.147-.33.206.206,0,0,1-.1-.307.264.264,0,0,0-.076-.353.2.2,0,0,1-.034-.321.263.263,0,0,0,0-.361.2.2,0,0,1,.034-.321.265.265,0,0,0,.076-.353.2.2,0,0,1,.1-.307.264.264,0,0,0,.147-.33.2.2,0,0,1,.16-.279.264.264,0,0,0,.211-.292.2.2,0,0,1,.216-.239.265.265,0,0,0,.268-.241.206.206,0,0,1,.261-.19.265.265,0,0,0,.313-.18.2.2,0,0,1,.295-.131.263.263,0,0,0,.342-.111.205.205,0,0,1,.316-.066.262.262,0,0,0,.358-.037.2.2,0,0,1,.322,0,.262.262,0,0,0,.358.037.205.205,0,0,1,.316.066.264.264,0,0,0,.342.111.2.2,0,0,1,.295.131.265.265,0,0,0,.313.18.2.2,0,0,1,.261.19.262.262,0,0,0,.268.241.2.2,0,0,1,.216.239.264.264,0,0,0,.211.292.2.2,0,0,1,.16.279.264.264,0,0,0,.147.33.206.206,0,0,1,.1.307.264.264,0,0,0,.076.353.2.2,0,0,1,.034.321.266.266,0,0,0,0,.362Z" transform="translate(330.004 53.033)" fill="#fdf8f4"/>
  </g>
</svg>
